<mxfile host="app.diagrams.net" modified="2021-03-22T03:37:32.740Z" agent="5.0 (Windows NT 10.0; Win64; x64) AppleWebKit/537.36 (KHTML, like Gecko) Chrome/84.0.4147.135 Safari/537.36" etag="7TOajqs1NHcjY8lJOMgg" version="13.9.3" type="github">
  <diagram id="xYzJlkYeniRIQVgDGAQ-" name="Page-1">
    <mxGraphModel dx="3197" dy="2439" grid="1" gridSize="10" guides="1" tooltips="1" connect="1" arrows="1" fold="1" page="1" pageScale="1" pageWidth="827" pageHeight="1169" math="0" shadow="0">
      <root>
        <mxCell id="0" />
        <mxCell id="1" parent="0" />
        <mxCell id="U_1GQFazaOlScwcg36Zp-1" value="netcdf : crime &amp;amp;external" style="rounded=1;whiteSpace=wrap;html=1;fontSize=22;" vertex="1" parent="1">
          <mxGeometry x="360" y="60" width="160" height="90" as="geometry" />
        </mxCell>
        <mxCell id="U_1GQFazaOlScwcg36Zp-2" value="&lt;span style=&quot;font-size: 24px&quot;&gt;data loading&lt;/span&gt;" style="text;html=1;strokeColor=none;fillColor=none;align=center;verticalAlign=middle;whiteSpace=wrap;rounded=0;" vertex="1" parent="1">
          <mxGeometry x="60" y="60" width="140" height="80" as="geometry" />
        </mxCell>
        <mxCell id="U_1GQFazaOlScwcg36Zp-3" value="&lt;span style=&quot;font-size: 24px&quot;&gt;data processing&lt;/span&gt;" style="text;html=1;strokeColor=none;fillColor=none;align=center;verticalAlign=middle;whiteSpace=wrap;rounded=0;" vertex="1" parent="1">
          <mxGeometry x="40" y="260" width="190" height="80" as="geometry" />
        </mxCell>
        <mxCell id="U_1GQFazaOlScwcg36Zp-4" value="&lt;span style=&quot;font-size: 24px&quot;&gt;building&amp;nbsp; models&amp;nbsp;&lt;/span&gt;" style="text;html=1;strokeColor=none;fillColor=none;align=center;verticalAlign=middle;whiteSpace=wrap;rounded=0;" vertex="1" parent="1">
          <mxGeometry x="40" y="460" width="190" height="80" as="geometry" />
        </mxCell>
        <mxCell id="U_1GQFazaOlScwcg36Zp-5" value="&lt;span style=&quot;font-size: 24px&quot;&gt;training&amp;nbsp; models&amp;nbsp;&lt;/span&gt;" style="text;html=1;strokeColor=none;fillColor=none;align=center;verticalAlign=middle;whiteSpace=wrap;rounded=0;" vertex="1" parent="1">
          <mxGeometry x="35" y="620" width="190" height="80" as="geometry" />
        </mxCell>
        <mxCell id="U_1GQFazaOlScwcg36Zp-6" value="&lt;span style=&quot;font-size: 24px&quot;&gt;eavaluate/prediction on new data&amp;nbsp;&lt;/span&gt;" style="text;html=1;strokeColor=none;fillColor=none;align=center;verticalAlign=middle;whiteSpace=wrap;rounded=0;" vertex="1" parent="1">
          <mxGeometry x="35" y="800" width="190" height="80" as="geometry" />
        </mxCell>
        <mxCell id="U_1GQFazaOlScwcg36Zp-7" value="npy:normalization?" style="rounded=1;whiteSpace=wrap;html=1;fontSize=22;" vertex="1" parent="1">
          <mxGeometry x="360" y="250" width="190" height="90" as="geometry" />
        </mxCell>
        <mxCell id="U_1GQFazaOlScwcg36Zp-8" value="model:&lt;br&gt;&lt;div&gt;&lt;span&gt;CNN参数(filters, kernel size)，residual units;&lt;/span&gt;&lt;/div&gt;length of C,P,T" style="rounded=1;whiteSpace=wrap;html=1;fontSize=22;align=left;" vertex="1" parent="1">
          <mxGeometry x="360" y="450" width="410" height="110" as="geometry" />
        </mxCell>
        <mxCell id="U_1GQFazaOlScwcg36Zp-21" style="edgeStyle=orthogonalEdgeStyle;rounded=0;orthogonalLoop=1;jettySize=auto;html=1;exitX=1;exitY=0.75;exitDx=0;exitDy=0;fontSize=22;entryX=1;entryY=0.25;entryDx=0;entryDy=0;" edge="1" parent="1" source="U_1GQFazaOlScwcg36Zp-10" target="U_1GQFazaOlScwcg36Zp-8">
          <mxGeometry relative="1" as="geometry">
            <mxPoint x="800" y="660" as="targetPoint" />
          </mxGeometry>
        </mxCell>
        <mxCell id="U_1GQFazaOlScwcg36Zp-10" value="&lt;div style=&quot;text-align: left&quot;&gt;&lt;span&gt;model:&lt;/span&gt;&lt;/div&gt;&lt;span&gt;&lt;div style=&quot;text-align: left&quot;&gt;&lt;span&gt;1. model.compile()&lt;/span&gt;&lt;/div&gt;&lt;div style=&quot;text-align: left&quot;&gt;&lt;span&gt;-optimizer参数，loss函数, metrics指标&lt;/span&gt;&lt;/div&gt;&lt;div style=&quot;text-align: left&quot;&gt;&lt;span&gt;2. model.fit()-trian_data,validation_data,epoch&lt;/span&gt;&lt;/div&gt;&lt;/span&gt;" style="rounded=1;whiteSpace=wrap;html=1;fontSize=22;" vertex="1" parent="1">
          <mxGeometry x="360" y="620" width="430" height="140" as="geometry" />
        </mxCell>
        <mxCell id="U_1GQFazaOlScwcg36Zp-11" value="&lt;div style=&quot;text-align: left&quot;&gt;&lt;span&gt;model.evaluate(test_dataset)&lt;/span&gt;&lt;br&gt;&lt;/div&gt;" style="rounded=1;whiteSpace=wrap;html=1;fontSize=22;" vertex="1" parent="1">
          <mxGeometry x="360" y="840" width="430" height="100" as="geometry" />
        </mxCell>
        <mxCell id="U_1GQFazaOlScwcg36Zp-13" value="" style="shape=flexArrow;endArrow=classic;html=1;fontSize=22;exitX=0.5;exitY=1;exitDx=0;exitDy=0;entryX=0.432;entryY=0.022;entryDx=0;entryDy=0;entryPerimeter=0;" edge="1" parent="1" source="U_1GQFazaOlScwcg36Zp-1" target="U_1GQFazaOlScwcg36Zp-7">
          <mxGeometry width="50" height="50" relative="1" as="geometry">
            <mxPoint x="390" y="330" as="sourcePoint" />
            <mxPoint x="440" y="280" as="targetPoint" />
            <Array as="points" />
          </mxGeometry>
        </mxCell>
        <mxCell id="U_1GQFazaOlScwcg36Zp-14" value="" style="shape=flexArrow;endArrow=classic;html=1;fontSize=22;exitX=0.5;exitY=1;exitDx=0;exitDy=0;entryX=0.19;entryY=0.018;entryDx=0;entryDy=0;entryPerimeter=0;" edge="1" parent="1" target="U_1GQFazaOlScwcg36Zp-8">
          <mxGeometry width="50" height="50" relative="1" as="geometry">
            <mxPoint x="438.96" y="340" as="sourcePoint" />
            <mxPoint x="441.0399999999999" y="441.98" as="targetPoint" />
            <Array as="points" />
          </mxGeometry>
        </mxCell>
        <mxCell id="U_1GQFazaOlScwcg36Zp-15" value="" style="shape=flexArrow;endArrow=classic;html=1;fontSize=22;exitX=0.5;exitY=1;exitDx=0;exitDy=0;" edge="1" parent="1">
          <mxGeometry width="50" height="50" relative="1" as="geometry">
            <mxPoint x="438.96" y="560" as="sourcePoint" />
            <mxPoint x="441" y="620" as="targetPoint" />
            <Array as="points" />
          </mxGeometry>
        </mxCell>
        <mxCell id="U_1GQFazaOlScwcg36Zp-16" value="" style="shape=flexArrow;endArrow=classic;html=1;fontSize=22;exitX=0.5;exitY=1;exitDx=0;exitDy=0;" edge="1" parent="1">
          <mxGeometry width="50" height="50" relative="1" as="geometry">
            <mxPoint x="438.96" y="760" as="sourcePoint" />
            <mxPoint x="441" y="840" as="targetPoint" />
            <Array as="points" />
          </mxGeometry>
        </mxCell>
        <mxCell id="U_1GQFazaOlScwcg36Zp-17" value="C,P,T的数据准备在哪一步" style="ellipse;shape=cloud;whiteSpace=wrap;html=1;fontSize=22;" vertex="1" parent="1">
          <mxGeometry x="910" y="200" width="520" height="120" as="geometry" />
        </mxCell>
        <mxCell id="U_1GQFazaOlScwcg36Zp-22" value="pick the best model" style="ellipse;shape=cloud;whiteSpace=wrap;html=1;fontSize=22;" vertex="1" parent="1">
          <mxGeometry x="860" y="550" width="340" height="90" as="geometry" />
        </mxCell>
        <mxCell id="U_1GQFazaOlScwcg36Zp-23" value="" style="endArrow=none;dashed=1;html=1;fontSize=22;" edge="1" parent="1">
          <mxGeometry width="50" height="50" relative="1" as="geometry">
            <mxPoint x="-150" y="990" as="sourcePoint" />
            <mxPoint x="1230" y="980" as="targetPoint" />
          </mxGeometry>
        </mxCell>
        <mxCell id="U_1GQFazaOlScwcg36Zp-24" value="每一空间分辨率" style="ellipse;whiteSpace=wrap;html=1;fontSize=22;fillColor=#f8cecc;strokeColor=#b85450;" vertex="1" parent="1">
          <mxGeometry x="-250" y="-80" width="260" height="100" as="geometry" />
        </mxCell>
        <mxCell id="U_1GQFazaOlScwcg36Zp-25" value="" style="endArrow=classic;html=1;fontSize=22;exitX=0.5;exitY=1;exitDx=0;exitDy=0;" edge="1" parent="1" source="U_1GQFazaOlScwcg36Zp-24">
          <mxGeometry width="50" height="50" relative="1" as="geometry">
            <mxPoint x="-170" y="110" as="sourcePoint" />
            <mxPoint x="-120" y="990" as="targetPoint" />
          </mxGeometry>
        </mxCell>
        <mxCell id="U_1GQFazaOlScwcg36Zp-26" value="获得最佳模型" style="shape=callout;whiteSpace=wrap;html=1;perimeter=calloutPerimeter;fontSize=22;base=20;position2=1;" vertex="1" parent="1">
          <mxGeometry x="-320" y="540" width="140" height="100" as="geometry" />
        </mxCell>
        <mxCell id="U_1GQFazaOlScwcg36Zp-27" value="&lt;span style=&quot;text-align: left&quot;&gt;model.predict(test_dataset)&amp;amp;test_dataset&lt;br&gt;&lt;/span&gt;" style="rounded=1;whiteSpace=wrap;html=1;fontSize=22;" vertex="1" parent="1">
          <mxGeometry x="360" y="1040" width="530" height="70" as="geometry" />
        </mxCell>
        <mxCell id="U_1GQFazaOlScwcg36Zp-28" value="&lt;span style=&quot;font-size: 24px&quot;&gt;calculate PAI&lt;/span&gt;" style="text;html=1;strokeColor=none;fillColor=none;align=center;verticalAlign=middle;whiteSpace=wrap;rounded=0;" vertex="1" parent="1">
          <mxGeometry x="20" y="1040" width="190" height="80" as="geometry" />
        </mxCell>
        <mxCell id="U_1GQFazaOlScwcg36Zp-30" value="" style="endArrow=classic;html=1;fontSize=22;" edge="1" parent="1">
          <mxGeometry width="50" height="50" relative="1" as="geometry">
            <mxPoint x="-120" y="990" as="sourcePoint" />
            <mxPoint x="-120" y="1150" as="targetPoint" />
          </mxGeometry>
        </mxCell>
        <mxCell id="U_1GQFazaOlScwcg36Zp-31" value="计算最佳模型预测结果的PAI" style="shape=callout;whiteSpace=wrap;html=1;perimeter=calloutPerimeter;fontSize=22;base=20;position2=1;" vertex="1" parent="1">
          <mxGeometry x="-290" y="1000" width="140" height="110" as="geometry" />
        </mxCell>
        <mxCell id="U_1GQFazaOlScwcg36Zp-33" style="edgeStyle=orthogonalEdgeStyle;rounded=0;orthogonalLoop=1;jettySize=auto;html=1;fontSize=22;" edge="1" parent="1">
          <mxGeometry relative="1" as="geometry">
            <mxPoint x="-190" y="30" as="targetPoint" />
            <mxPoint x="1410" y="1150" as="sourcePoint" />
            <Array as="points">
              <mxPoint x="-320" y="1150" />
              <mxPoint x="-510" y="1150" />
              <mxPoint x="-510" y="20" />
              <mxPoint x="-190" y="20" />
            </Array>
          </mxGeometry>
        </mxCell>
        <mxCell id="U_1GQFazaOlScwcg36Zp-34" value="最佳PAI的空间分辨率所在的模型" style="rounded=1;whiteSpace=wrap;html=1;fontSize=22;" vertex="1" parent="1">
          <mxGeometry x="325" y="1270" width="500" height="60" as="geometry" />
        </mxCell>
        <mxCell id="U_1GQFazaOlScwcg36Zp-35" value="" style="shape=flexArrow;endArrow=classic;html=1;fontSize=22;entryX=0.426;entryY=0.017;entryDx=0;entryDy=0;entryPerimeter=0;" edge="1" parent="1" target="U_1GQFazaOlScwcg36Zp-34">
          <mxGeometry width="50" height="50" relative="1" as="geometry">
            <mxPoint x="530" y="1150" as="sourcePoint" />
            <mxPoint x="540" y="1260" as="targetPoint" />
            <Array as="points">
              <mxPoint x="520" y="1230" />
            </Array>
          </mxGeometry>
        </mxCell>
      </root>
    </mxGraphModel>
  </diagram>
</mxfile>
